<?xml version="1.0" encoding="UTF-8" standalone="no"?>
<svg
   viewBox="384.978 -25.029 100575.24 69382.717"
   version="1.1"
   id="svg3"
   sodipodi:docname="Icon.svg"
   inkscape:export-filename="Icon.png"
   inkscape:export-xdpi="96"
   inkscape:export-ydpi="96"
   width="100575.23"
   height="69382.719"
   xmlns:inkscape="http://www.inkscape.org/namespaces/inkscape"
   xmlns:sodipodi="http://sodipodi.sourceforge.net/DTD/sodipodi-0.dtd"
   xmlns:xlink="http://www.w3.org/1999/xlink"
   xmlns="http://www.w3.org/2000/svg"
   xmlns:svg="http://www.w3.org/2000/svg">
  <rect
     style="fill:url(#pattern6);stroke:none;stroke-width:1.45252"
     width="312.5155"
     height="200.29984"
     x="384.10187"
     y="2.9836822"
     id="rect4" />
  <defs
     id="defs3">
    <pattern
       inkscape:collect="always"
       xlink:href="#pattern4"
       preserveAspectRatio="xMidYMid"
       id="pattern6"
       patternTransform="matrix(1.5019468,0,0,1.4047132,384.10187,2.9836855)" />
    <pattern
       patternUnits="userSpaceOnUse"
       width="208.07359"
       height="142.59126"
       patternTransform="translate(54.531185,49.661733)"
       preserveAspectRatio="xMidYMid"
       id="pattern4">
      <g
         id="g4"
         transform="translate(-439.50918,-24.632733)">
        <g
           transform="matrix(1.226881,0,0,1.215343,-96.029884,19.60257)"
           style="stroke-width:1.00401;stroke-dasharray:none"
           id="g3">
          <path
             d="m 596.221,9.94 5.078,-5.721 c -3.944,-0.613 -5.566,2.417 -6.229,4.816 -3.081,-1.803 -6.436,0.561 -6.436,0.561 l 10.159,5.195 c -0.512,-1.929 -1.405,-3.61 -2.572,-4.851 z"
             fill="#3f3d56"
             style="stroke-width:1.00401;stroke-dasharray:none"
             id="path1" />
          <path
             d="m 561.46,16.648 5.078,-5.721 c -3.945,-0.613 -5.565,2.417 -6.229,4.816 -3.082,-1.803 -6.436,0.559 -6.436,0.559 l 10.158,5.196 c -0.511,-1.928 -1.404,-3.611 -2.571,-4.85 z"
             fill="#3f3d56"
             style="stroke-width:1.00401;stroke-dasharray:none"
             id="path2" />
          <path
             d="m 582.729,37.724 5.077,-5.722 c -3.944,-0.614 -5.565,2.418 -6.229,4.817 -3.081,-1.803 -6.436,0.559 -6.436,0.559 l 10.16,5.197 c -0.513,-1.928 -1.405,-3.612 -2.572,-4.851 z"
             fill="#3f3d56"
             style="stroke-width:1.00401;stroke-dasharray:none"
             id="path3" />
        </g>
        <g
           id="e2dfab6d-8627-4cc0-b13e-69de57259a01"
           data-name="Group 27"
           transform="matrix(1.448185,0,0,1.572719,-88.579979,22.143415)"
           style="stroke-width:1.00401;stroke-dasharray:none">
          <circle
             id="bedd3b2f-f695-46eb-9812-80ad4d1341b6"
             data-name="Ellipse 7"
             cx="398.21854"
             cy="34.412971"
             r="18.768471"
             fill="#ff6583"
             style="stroke-width:1.00401;stroke-dasharray:none" />
          <path
             id="efdddea5-7f44-48b8-bec9-83339a7f085f-59"
             data-name="Path 63"
             d="m 641.059,219.24736 h -92.0731 a 1.88476,1.88476 0 0 1 -0.34417,-0.0273 L 592.189,143.79586 a 3.04826,3.04826 0 0 1 5.307,0 l 29.224,50.61377 1.39957,2.42155 z"
             transform="translate(-183.98585,-127)"
             fill="#6c63ff"
             style="stroke-width:1.00401;stroke-dasharray:none" />
          <path
             id="f8d22fd6-a75d-4da9-80c1-fba8d7f50740-60"
             data-name="Path 65"
             d="m 692.32061,219.24825 h -79.63353 l 15.4306,-22.41441 1.11,-1.61523 20.10819,-29.20986 a 4.0685,4.0685 0 0 1 6.04372,-0.36091 3.63814,3.63814 0 0 1 0.28961,0.36091 z"
             transform="translate(-183.98585,-127)"
             fill="#6c63ff"
             style="stroke-width:1.00401;stroke-dasharray:none" />
        </g>
      </g>
    </pattern>
  </defs>
  <sodipodi:namedview
     id="namedview3"
     pagecolor="#505050"
     bordercolor="#ffffff"
     borderopacity="1"
     inkscape:showpageshadow="0"
     inkscape:pageopacity="0"
     inkscape:pagecheckerboard="1"
     inkscape:deskcolor="#505050"
     showgrid="false" />
</svg>
