<?xml version="1.0" encoding="utf-8"?>
<svg viewBox="384.978 -25.029 317.136 263.406" xmlns="http://www.w3.org/2000/svg">
  <g transform="matrix(1.2268810272216797, 0, 0, 1.2153429985046387, -96.02988433837893, 19.602569580078125)" style="">
    <path d="M 596.221 9.94 L 601.299 4.219 C 597.355 3.606 595.733 6.636 595.07 9.035 C 591.989 7.232 588.634 9.596 588.634 9.596 L 598.793 14.791 C 598.281 12.862 597.388 11.181 596.221 9.94 Z" fill="#3f3d56" style=""/>
    <path d="M 561.46 16.648 L 566.538 10.927 C 562.593 10.314 560.973 13.344 560.309 15.743 C 557.227 13.94 553.873 16.302 553.873 16.302 L 564.031 21.498 C 563.52 19.57 562.627 17.887 561.46 16.648 Z" fill="#3f3d56" style=""/>
    <path d="M 582.729 37.724 L 587.806 32.002 C 583.862 31.388 582.241 34.42 581.577 36.819 C 578.496 35.016 575.141 37.378 575.141 37.378 L 585.301 42.575 C 584.788 40.647 583.896 38.963 582.729 37.724 Z" fill="#3f3d56" style=""/>
  </g>
  <g id="e2dfab6d-8627-4cc0-b13e-69de57259a01" data-name="Group 27" transform="matrix(1.4481849670410156, 0, 0, 1.5727189779281616, -88.57997894287112, 22.143415451049805)" style="">
    <circle id="bedd3b2f-f695-46eb-9812-80ad4d1341b6" data-name="Ellipse 7" cx="398.21854" cy="34.41297" r="18.76847" fill="#ff6583"/>
    <path id="efdddea5-7f44-48b8-bec9-83339a7f085f-59" data-name="Path 63" d="M641.059,219.24736H548.9859a1.88476,1.88476,0,0,1-.34417-.02729L592.189,143.79586a3.04826,3.04826,0,0,1,5.307,0l29.224,50.61377,1.39957,2.42155Z" transform="translate(-183.98585 -127)" fill="#6c63ff"/>
    <path id="f8d22fd6-a75d-4da9-80c1-fba8d7f50740-60" data-name="Path 65" d="M692.32061,219.24825H612.68708l15.4306-22.41441,1.11-1.61523,20.10819-29.20986a4.0685,4.0685,0,0,1,6.04372-.36091,3.63814,3.63814,0,0,1,.28961.36091Z" transform="translate(-183.98585 -127)" fill="#6c63ff"/>
  </g>
</svg>