<?xml version="1.0" encoding="UTF-8" standalone="no"?>
<svg
   data-name="Layer 1"
   width="500"
   height="500"
   viewBox="0 0 500 500.00001"
   version="1.1"
   id="svg57"
   sodipodi:docname="undraw_navigator_a479.svg"
   inkscape:export-filename="..\Desktop\undraw_navigator_a479.svg"
   inkscape:export-xdpi="96"
   inkscape:export-ydpi="96"
   xmlns:inkscape="http://www.inkscape.org/namespaces/inkscape"
   xmlns:sodipodi="http://sodipodi.sourceforge.net/DTD/sodipodi-0.dtd"
   xmlns:xlink="http://www.w3.org/1999/xlink"
   xmlns="http://www.w3.org/2000/svg"
   xmlns:svg="http://www.w3.org/2000/svg"
   xmlns:rdf="http://www.w3.org/1999/02/22-rdf-syntax-ns#"
   xmlns:cc="http://creativecommons.org/ns#"
   xmlns:dc="http://purl.org/dc/elements/1.1/">
  <defs
     id="defs57">
    <linearGradient
       id="linearGradient70"
       inkscape:collect="always">
      <stop
         style="stop-color:#00176f;stop-opacity:0.47826087;"
         offset="0"
         id="stop71" />
      <stop
         style="stop-color:#000000;stop-opacity:0;"
         offset="1"
         id="stop72" />
    </linearGradient>
    <linearGradient
       inkscape:collect="always"
       xlink:href="#linearGradient70"
       id="linearGradient72"
       x1="272.29889"
       y1="231.46156"
       x2="669.36633"
       y2="231.46156"
       gradientUnits="userSpaceOnUse" />
    <linearGradient
       inkscape:collect="always"
       xlink:href="#linearGradient70"
       id="linearGradient73"
       gradientUnits="userSpaceOnUse"
       x1="272.29889"
       y1="231.46156"
       x2="669.36633"
       y2="231.46156" />
    <linearGradient
       inkscape:collect="always"
       xlink:href="#linearGradient70"
       id="linearGradient74"
       gradientUnits="userSpaceOnUse"
       x1="272.29889"
       y1="231.46156"
       x2="669.36633"
       y2="231.46156" />
    <linearGradient
       inkscape:collect="always"
       xlink:href="#linearGradient70"
       id="linearGradient75"
       gradientUnits="userSpaceOnUse"
       x1="272.29889"
       y1="231.46156"
       x2="669.36633"
       y2="231.46156" />
    <linearGradient
       inkscape:collect="always"
       xlink:href="#linearGradient70"
       id="linearGradient76"
       gradientUnits="userSpaceOnUse"
       x1="272.29889"
       y1="231.46156"
       x2="669.36633"
       y2="231.46156" />
    <linearGradient
       inkscape:collect="always"
       xlink:href="#linearGradient70"
       id="linearGradient77"
       gradientUnits="userSpaceOnUse"
       x1="272.29889"
       y1="231.46156"
       x2="669.36633"
       y2="231.46156" />
    <linearGradient
       inkscape:collect="always"
       xlink:href="#linearGradient70"
       id="linearGradient78"
       gradientUnits="userSpaceOnUse"
       x1="272.29889"
       y1="231.46156"
       x2="669.36633"
       y2="231.46156" />
    <linearGradient
       inkscape:collect="always"
       xlink:href="#linearGradient70"
       id="linearGradient79"
       gradientUnits="userSpaceOnUse"
       x1="272.29889"
       y1="231.46156"
       x2="669.36633"
       y2="231.46156" />
    <linearGradient
       inkscape:collect="always"
       xlink:href="#linearGradient70"
       id="linearGradient80"
       gradientUnits="userSpaceOnUse"
       x1="272.29889"
       y1="231.46156"
       x2="669.36633"
       y2="231.46156" />
  </defs>
  <sodipodi:namedview
     id="namedview57"
     pagecolor="#ffffff"
     bordercolor="#000000"
     borderopacity="0.25"
     inkscape:showpageshadow="2"
     inkscape:pageopacity="0.0"
     inkscape:pagecheckerboard="0"
     inkscape:deskcolor="#d1d1d1" />
  <title
     id="title1">navigator</title>
  <g
     id="g58"
     transform="matrix(1.1688201,0,0,1.199983,-300.07961,-27.84139)">
    <g
       id="g59"
       style="stroke:url(#linearGradient72);stroke-width:2.53314;stroke-dasharray:none;paint-order:markers fill stroke"
       transform="translate(-0.20450126,0.07621401)">
      <ellipse
         cx="366.02264"
         cy="209.9964"
         fill="#ff6584"
         id="circle1"
         rx="51.287209"
         ry="50.762669"
         style="stroke:url(#linearGradient73);stroke-width:2.53314;stroke-dasharray:none;stroke-opacity:1;paint-order:markers fill stroke" />
      <path
         d="M 526.85361,366.4283 H 275.25393 a 5.1318966,5.07941 0 0 1 -0.9402,-0.0737 L 393.3088,162.34605 a 8.3317026,8.24649 0 0 1 14.5032,0 l 79.86063,136.90556 3.82598,6.55094 z"
         fill="#3f3d56"
         id="path1"
         style="fill:#646cff;fill-opacity:1;stroke:url(#linearGradient74);stroke-width:2.53314;stroke-dasharray:none;stroke-opacity:1;paint-order:markers fill stroke" />
      <polygon
         points="352.802,192.502 356.589,199.052 391.582,259.678 306.558,259.678 348.296,199.052 351.3,194.685 "
         opacity="0.2"
         id="polygon1"
         transform="matrix(1.0103332,0,0,1,129.66795,105.20857)"
         style="stroke:url(#linearGradient75);stroke-width:2.52016;stroke-dasharray:none;stroke-opacity:1;paint-order:markers fill stroke" />
      <path
         d="M 666.94252,366.4283 H 449.32947 l 42.16914,-60.62578 3.03464,-4.36731 54.95018,-79.007 c 3.60252,-5.17807 12.26905,-5.50052 16.50457,-0.97665 a 9.9315147,9.82994 0 0 1 0.7913,0.97665 z"
         fill="#3f3d56"
         id="path2"
         style="fill:#646cff;fill-opacity:1;stroke:url(#linearGradient76);stroke-width:2.53314;stroke-dasharray:none;stroke-opacity:1;paint-order:markers fill stroke" />
      <g
         id="g57"
         transform="matrix(0.74475752,0.00936765,-0.00748707,0.931823,208.78139,91.664311)"
         style="stroke:url(#linearGradient80);stroke-width:3.04063;stroke-dasharray:none;stroke-opacity:1;paint-order:markers fill stroke">
        <path
           d="m 748.69208,290.55856 a 20.83292,20.83292 0 0 1 10.12924,2.6174 h -20.23244 a 20.74188,20.74188 0 0 1 10.1032,-2.6174 z"
           transform="translate(-156.82437,-204.18443)"
           fill="#e6e6e6"
           id="path41"
           style="stroke:url(#linearGradient77);stroke-width:3.04063;stroke-dasharray:none;stroke-opacity:1;paint-order:markers fill stroke" />
        <path
           d="m 709.43111,287.94117 a 28.623,28.623 0 0 1 16.534,5.23479 h -33.0457 a 28.61637,28.61637 0 0 1 16.5117,-5.23479 z"
           transform="translate(-156.82437,-204.18443)"
           fill="#e6e6e6"
           id="path42"
           style="stroke:url(#linearGradient78);stroke-width:3.04063;stroke-dasharray:none;stroke-opacity:1;paint-order:markers fill stroke" />
        <path
           d="M 302.44644,52.397125 A 53.65615,59.763579 89.424023 0 1 419.71537,40.963943 c 0.72401,-0.02406 1.44747,-0.05093 2.17781,-0.05168 a 53.66909,59.777992 89.424023 0 1 57.29747,38.479869 37.92036,42.236658 89.424023 0 1 50.10378,11.140916 l -186.42125,0.191503 a 36.29323,40.424319 89.424023 0 1 -40.4699,-37.535995 q 0.0184,-0.395143 0.0431,-0.791433 z"
           fill="#e6e6e6"
           id="path43"
           style="fill:#e6e6e6;stroke:url(#linearGradient79);stroke-width:3.04063;stroke-dasharray:none;stroke-opacity:1;paint-order:markers fill stroke" />
      </g>
    </g>
  </g>
  <metadata
     id="metadata58">
    <rdf:RDF>
      <cc:Work
         rdf:about="">
        <dc:title>navigator</dc:title>
      </cc:Work>
    </rdf:RDF>
  </metadata>
</svg>
