<?xml version="1.0" encoding="UTF-8" standalone="no"?>
<svg
   data-name="Layer 1"
   width="500"
   height="500"
   viewBox="0 0 499.99999 499.99998"
   version="1.1"
   id="svg44"
   sodipodi:docname="undraw_world_re_768g.svg"
   inkscape:export-filename="..\Desktop\undraw_world_re_768g.svg"
   inkscape:export-xdpi="96"
   inkscape:export-ydpi="96"
   xmlns:inkscape="http://www.inkscape.org/namespaces/inkscape"
   xmlns:sodipodi="http://sodipodi.sourceforge.net/DTD/sodipodi-0.dtd"
   xmlns:xlink="http://www.w3.org/1999/xlink"
   xmlns="http://www.w3.org/2000/svg"
   xmlns:svg="http://www.w3.org/2000/svg">
  <defs
     id="defs44">
    <linearGradient
       id="linearGradient49"
       inkscape:collect="always">
      <stop
         style="stop-color:#000000;stop-opacity:0.32116789;"
         offset="0"
         id="stop49" />
      <stop
         style="stop-color:#000000;stop-opacity:0;"
         offset="1"
         id="stop50" />
    </linearGradient>
    <linearGradient
       inkscape:collect="always"
       xlink:href="#linearGradient49"
       id="linearGradient50"
       x1="89.331093"
       y1="254.9639"
       x2="581.3855"
       y2="254.9639"
       gradientUnits="userSpaceOnUse" />
    <linearGradient
       inkscape:collect="always"
       xlink:href="#linearGradient49"
       id="linearGradient51"
       gradientUnits="userSpaceOnUse"
       x1="89.331093"
       y1="254.9639"
       x2="581.3855"
       y2="254.9639" />
    <linearGradient
       inkscape:collect="always"
       xlink:href="#linearGradient49"
       id="linearGradient52"
       gradientUnits="userSpaceOnUse"
       x1="89.331093"
       y1="254.9639"
       x2="581.3855"
       y2="254.9639" />
    <linearGradient
       inkscape:collect="always"
       xlink:href="#linearGradient49"
       id="linearGradient53"
       gradientUnits="userSpaceOnUse"
       x1="89.331093"
       y1="254.9639"
       x2="581.3855"
       y2="254.9639" />
    <linearGradient
       inkscape:collect="always"
       xlink:href="#linearGradient49"
       id="linearGradient54"
       gradientUnits="userSpaceOnUse"
       x1="89.331093"
       y1="254.9639"
       x2="581.3855"
       y2="254.9639" />
    <linearGradient
       inkscape:collect="always"
       xlink:href="#linearGradient49"
       id="linearGradient55"
       gradientUnits="userSpaceOnUse"
       x1="89.331093"
       y1="254.9639"
       x2="581.3855"
       y2="254.9639" />
    <linearGradient
       inkscape:collect="always"
       xlink:href="#linearGradient49"
       id="linearGradient56"
       gradientUnits="userSpaceOnUse"
       x1="89.331093"
       y1="254.9639"
       x2="581.3855"
       y2="254.9639" />
    <linearGradient
       inkscape:collect="always"
       xlink:href="#linearGradient49"
       id="linearGradient57"
       gradientUnits="userSpaceOnUse"
       x1="89.331093"
       y1="254.9639"
       x2="581.3855"
       y2="254.9639" />
    <linearGradient
       inkscape:collect="always"
       xlink:href="#linearGradient49"
       id="linearGradient58"
       gradientUnits="userSpaceOnUse"
       x1="89.331093"
       y1="254.9639"
       x2="581.3855"
       y2="254.9639" />
    <linearGradient
       inkscape:collect="always"
       xlink:href="#linearGradient49"
       id="linearGradient59"
       gradientUnits="userSpaceOnUse"
       x1="89.331093"
       y1="254.9639"
       x2="581.3855"
       y2="254.9639" />
    <linearGradient
       inkscape:collect="always"
       xlink:href="#linearGradient49"
       id="linearGradient60"
       gradientUnits="userSpaceOnUse"
       x1="89.331093"
       y1="254.9639"
       x2="581.3855"
       y2="254.9639" />
    <linearGradient
       inkscape:collect="always"
       xlink:href="#linearGradient49"
       id="linearGradient61"
       gradientUnits="userSpaceOnUse"
       x1="89.331093"
       y1="254.9639"
       x2="581.3855"
       y2="254.9639" />
    <linearGradient
       inkscape:collect="always"
       xlink:href="#linearGradient49"
       id="linearGradient62"
       gradientUnits="userSpaceOnUse"
       x1="89.331093"
       y1="254.9639"
       x2="581.3855"
       y2="254.9639" />
    <linearGradient
       inkscape:collect="always"
       xlink:href="#linearGradient49"
       id="linearGradient63"
       gradientUnits="userSpaceOnUse"
       x1="89.331093"
       y1="254.9639"
       x2="581.3855"
       y2="254.9639" />
    <linearGradient
       inkscape:collect="always"
       xlink:href="#linearGradient49"
       id="linearGradient64"
       gradientUnits="userSpaceOnUse"
       x1="89.331093"
       y1="254.9639"
       x2="581.3855"
       y2="254.9639" />
    <linearGradient
       inkscape:collect="always"
       xlink:href="#linearGradient49"
       id="linearGradient65"
       gradientUnits="userSpaceOnUse"
       x1="89.331093"
       y1="254.9639"
       x2="581.3855"
       y2="254.9639" />
    <linearGradient
       inkscape:collect="always"
       xlink:href="#linearGradient49"
       id="linearGradient66"
       gradientUnits="userSpaceOnUse"
       x1="89.331093"
       y1="254.9639"
       x2="581.3855"
       y2="254.9639" />
    <linearGradient
       inkscape:collect="always"
       xlink:href="#linearGradient49"
       id="linearGradient67"
       gradientUnits="userSpaceOnUse"
       x1="89.331093"
       y1="254.9639"
       x2="581.3855"
       y2="254.9639" />
    <linearGradient
       inkscape:collect="always"
       xlink:href="#linearGradient49"
       id="linearGradient68"
       gradientUnits="userSpaceOnUse"
       x1="89.331093"
       y1="254.9639"
       x2="581.3855"
       y2="254.9639" />
    <linearGradient
       inkscape:collect="always"
       xlink:href="#linearGradient49"
       id="linearGradient69"
       gradientUnits="userSpaceOnUse"
       x1="89.331093"
       y1="254.9639"
       x2="581.3855"
       y2="254.9639" />
    <linearGradient
       inkscape:collect="always"
       xlink:href="#linearGradient49"
       id="linearGradient70"
       gradientUnits="userSpaceOnUse"
       x1="89.331093"
       y1="254.9639"
       x2="581.3855"
       y2="254.9639" />
    <linearGradient
       inkscape:collect="always"
       xlink:href="#linearGradient49"
       id="linearGradient71"
       gradientUnits="userSpaceOnUse"
       x1="89.331093"
       y1="254.9639"
       x2="581.3855"
       y2="254.9639" />
    <linearGradient
       inkscape:collect="always"
       xlink:href="#linearGradient49"
       id="linearGradient72"
       gradientUnits="userSpaceOnUse"
       x1="89.331093"
       y1="254.9639"
       x2="581.3855"
       y2="254.9639" />
    <linearGradient
       inkscape:collect="always"
       xlink:href="#linearGradient49"
       id="linearGradient73"
       gradientUnits="userSpaceOnUse"
       x1="89.331093"
       y1="254.9639"
       x2="581.3855"
       y2="254.9639" />
    <linearGradient
       inkscape:collect="always"
       xlink:href="#linearGradient49"
       id="linearGradient74"
       gradientUnits="userSpaceOnUse"
       x1="89.331093"
       y1="254.9639"
       x2="581.3855"
       y2="254.9639" />
    <linearGradient
       inkscape:collect="always"
       xlink:href="#linearGradient49"
       id="linearGradient75"
       gradientUnits="userSpaceOnUse"
       x1="89.331093"
       y1="254.9639"
       x2="581.3855"
       y2="254.9639" />
    <linearGradient
       inkscape:collect="always"
       xlink:href="#linearGradient49"
       id="linearGradient76"
       gradientUnits="userSpaceOnUse"
       x1="89.331093"
       y1="254.9639"
       x2="581.3855"
       y2="254.9639" />
    <linearGradient
       inkscape:collect="always"
       xlink:href="#linearGradient49"
       id="linearGradient77"
       gradientUnits="userSpaceOnUse"
       x1="89.331093"
       y1="254.9639"
       x2="581.3855"
       y2="254.9639" />
    <linearGradient
       inkscape:collect="always"
       xlink:href="#linearGradient49"
       id="linearGradient78"
       gradientUnits="userSpaceOnUse"
       x1="89.331093"
       y1="254.9639"
       x2="581.3855"
       y2="254.9639" />
    <linearGradient
       inkscape:collect="always"
       xlink:href="#linearGradient49"
       id="linearGradient79"
       gradientUnits="userSpaceOnUse"
       x1="89.331093"
       y1="254.9639"
       x2="581.3855"
       y2="254.9639" />
    <linearGradient
       inkscape:collect="always"
       xlink:href="#linearGradient49"
       id="linearGradient80"
       gradientUnits="userSpaceOnUse"
       x1="89.331093"
       y1="254.9639"
       x2="581.3855"
       y2="254.9639" />
    <linearGradient
       inkscape:collect="always"
       xlink:href="#linearGradient49"
       id="linearGradient81"
       gradientUnits="userSpaceOnUse"
       x1="89.331093"
       y1="254.9639"
       x2="581.3855"
       y2="254.9639" />
    <linearGradient
       inkscape:collect="always"
       xlink:href="#linearGradient49"
       id="linearGradient82"
       gradientUnits="userSpaceOnUse"
       x1="89.331093"
       y1="254.9639"
       x2="581.3855"
       y2="254.9639" />
    <linearGradient
       inkscape:collect="always"
       xlink:href="#linearGradient49"
       id="linearGradient83"
       gradientUnits="userSpaceOnUse"
       x1="89.331093"
       y1="254.9639"
       x2="581.3855"
       y2="254.9639" />
    <linearGradient
       inkscape:collect="always"
       xlink:href="#linearGradient49"
       id="linearGradient84"
       gradientUnits="userSpaceOnUse"
       x1="89.331093"
       y1="254.9639"
       x2="581.3855"
       y2="254.9639" />
    <linearGradient
       inkscape:collect="always"
       xlink:href="#linearGradient49"
       id="linearGradient85"
       gradientUnits="userSpaceOnUse"
       x1="89.331093"
       y1="254.9639"
       x2="581.3855"
       y2="254.9639" />
  </defs>
  <sodipodi:namedview
     id="namedview44"
     pagecolor="#ffffff"
     bordercolor="#000000"
     borderopacity="0.25"
     inkscape:showpageshadow="2"
     inkscape:pageopacity="0.0"
     inkscape:pagecheckerboard="0"
     inkscape:deskcolor="#d1d1d1" />
  <g
     id="g44"
     transform="translate(-85.358289,-4.9638953)"
     style="mix-blend-mode:darken;stroke:url(#linearGradient50);stroke-width:3;stroke-dasharray:none;paint-order:fill markers stroke">
    <path
       d="m 715.39088,417.65494 a 189.27007,189.27007 0 0 1 -189.308,189.308 c -104.55063,0 -189.308,-84.75749 -189.308,-189.308 a 189.24483,189.24483 0 0 1 9.65476,-59.84238 189.50618,189.50618 0 0 1 179.65325,-129.46556 189.24453,189.24453 0 0 1 166.93821,99.98607 186.77361,186.77361 0 0 1 10.46447,23.10619 c 0.41,1.10421 0.80984,2.20843 1.19884,3.32331 v 0.0105 q 2.60321,7.35132 4.58557,14.97635 a 189.32006,189.32006 0 0 1 6.1209,47.90549 z"
       transform="translate(-187.39893,-154.29051)"
       fill="#3f3d56"
       id="path5"
       style="stroke:url(#linearGradient51);stroke-width:3;stroke-dasharray:none;stroke-opacity:0.321168;paint-order:fill markers stroke" />
    <path
       d="m 505.371,289.93115 a 63.51666,63.51666 0 0 0 -55.7615,-2.28136 c -7.79648,3.393 -16.00583,9.47972 -18.6067,20.47116 10.519,-6.20795 24.13568,3.60058 26.8425,19.33555 l -0.63186,0.17419 c -1.42965,10.89863 1.76186,22.76429 7.94073,29.52228 0.81123,-7.01955 5.42678,-11.797 9.96657,-14.78135 4.53979,-2.9843 9.562,-5.15219 13.02707,-10.28189 4.10787,-6.08133 5.151,-14.96914 6.7829,-23.077 1.63192,-8.1079 4.72798,-16.82233 10.44029,-19.08158 z"
       transform="translate(-187.39893,-154.29051)"
       fill="#ffffff"
       id="path6"
       style="stroke:url(#linearGradient52);stroke-width:3;stroke-dasharray:none;stroke-opacity:0.321168;paint-order:fill markers stroke" />
    <path
       d="m 446.48934,382.675 c -2.91326,4.375 -6.80454,7.12011 -10.29617,10.53817 -3.48109,3.42859 -6.79414,8.056 -7.48817,13.99821 -0.44177,3.80718 0.24187,7.67741 0.14712,11.52684 -0.0945,3.84917 -1.37767,8.18221 -3.99642,9.1393 -4.13328,1.49335 -7.28842,-6.18406 -11.53724,-6.72045 -3.37608,-0.42071 -6.41541,4.89049 -5.43739,9.497 0.97814,4.6065 5.57412,6.64675 8.21392,3.63888 2.38741,4.007 0.70457,11.27444 -2.88168,12.50486 -0.37873,2.52413 -0.7572,5.03773 -1.1254,7.56174 -9.06574,-6.34185 -18.22611,-12.78872 -25.9351,-22.07541 a 67.00679,67.00679 0 0 1 -15.27087,-36.09467 c -0.99907,-10.67489 0.48375,-22.88524 -4.41713,-31.099 -3.923,-6.57319 -10.654,-8.02468 -16.71184,-7.61437 -1.10421,0.0736 -2.219,0.19976 -3.32331,0.33649 a 187.23535,187.23535 0 0 1 13.55644,-31.02548 13.2821,13.2821 0 0 0 3.397,-2.11395 c 5.63728,-4.78521 8.14036,-14.47155 12.71528,-21.171 q 0.44177,-0.64686 0.915,-1.262 c 4.68019,-6.1105 10.94835,-9.25511 17.00622,-12.1789 13.40931,-6.51 27.20763,-13.10427 41.36375,-12.19982 l -4.028,0.38913 q -7.05168,19.75116 -14.114,39.50233 -1.07283,3.0288 -2.16646,6.06839 c -2.67138,7.48805 -5.42686,15.4601 -5.01668,23.84221 0.24187,4.964 1.96657,10.26471 5.248,11.96848 3.06039,1.57756 6.40488,-0.35755 9.36012,-2.27173 1.25161,-0.79932 2.49268,-1.59863 3.74416,-2.40846 4.49082,-2.89221 9.4654,-5.858 14.20862,-3.92287 4.34358,1.76694 7.55122,7.667 8.16129,14.02992 a 28.04928,28.04928 0 0 1 -4.29106,17.61616 z"
       transform="translate(-187.39893,-154.29051)"
       fill="#ffffff"
       id="path7"
       style="stroke:url(#linearGradient53);stroke-width:3;stroke-dasharray:none;stroke-opacity:0.321168;paint-order:fill markers stroke" />
    <path
       d="m 473.19842,472.57227 q -19.67374,-12.11336 -39.34763,-24.22672 l 0.22263,-0.57342 c -8.15482,3.106 -11.54047,17.60169 -10.19276,29.456 1.34764,11.85442 5.91745,22.45144 8.226,34.00207 a 90.25226,90.25226 0 0 1 -3.40267,47.35761 387.843,387.843 0 0 0 45.56027,-62.78054 33.58822,33.58822 0 0 0 4.12118,-9.13813 c 0.83321,-3.44179 0.70508,-7.57955 -0.96357,-10.33953 a 11.5109,11.5109 0 0 0 -4.22345,-3.75734 z"
       transform="translate(-187.39893,-154.29051)"
       fill="#ffffff"
       id="path8"
       style="stroke:url(#linearGradient54);stroke-width:3;stroke-dasharray:none;stroke-opacity:0.321168;paint-order:fill markers stroke" />
    <path
       d="m 421.43456,325.65321 c -1.3927,3.13139 -1.92854,7.30684 -0.66468,10.5469 1.29075,3.309 4.01943,4.80443 6.53166,6.04952 l 7.24713,3.59224 c 2.411,1.19506 5.00969,2.40208 7.46752,1.41883 2.96442,-1.18591 5.01982,-5.83337 4.48812,-10.14785 -0.56592,-4.59118 -3.45988,-7.7493 -6.13638,-10.43868 q -5.61837,-5.64531 -11.23667,-11.29061 l -2.11089,2.58543 a 28.19193,28.19193 0 0 0 -5.58581,7.68422 z"
       transform="translate(-187.39893,-154.29051)"
       fill="#ffffff"
       id="path9"
       style="stroke:url(#linearGradient55);stroke-width:3;stroke-dasharray:none;stroke-opacity:0.321168;paint-order:fill markers stroke" />
    <path
       d="m 676.54061,374.73455 q 4.89062,1.15159 9.781,2.30319 c -0.568,11.01151 -6.02628,21.20266 -13.34615,24.894 -3.05,1.53558 -6.447,2.10342 -8.97113,4.9747 -2.28213,2.60822 -3.43911,6.66768 -4.50135,10.54856 q -2.79233,10.15963 -5.58465,20.319 c -1.99815,7.29894 -4.56426,15.40772 -9.75978,18.037 -4.45924,2.26108 -9.56,-0.50493 -12.9886,-5.143 -3.42859,-4.638 -5.52149,-10.87466 -7.55135,-16.95345 0.1262,6.6257 -2.95524,13.12534 -7.31986,15.42852 -4.37516,2.30319 -9.69688,0.22082 -12.62054,-4.92193 -2.10342,-3.69152 -2.97629,-8.56108 -5.03773,-12.3051 -2.06132,-3.744 -6.38383,-5.88956 -8.63451,-2.37688 -1.48295,2.3349 -1.29371,5.91061 -2.02986,8.87651 -1.14633,4.60637 -4.6169,7.49858 -8.056,7.7511 -3.42859,0.25241 -6.77309,-1.72482 -9.64424,-4.40673 -5.92114,-5.55307 -10.28577,-14.36628 -11.979,-24.15777 -0.74667,-4.36463 -0.957,-9.11826 0.33662,-13.20956 1.29359,-4.091 4.41714,-7.24617 7.51964,-6.46792 2.04038,-4.31211 -1.98763,-10.03336 -5.61611,-9.52856 -3.639,0.5048 -6.4891,4.40661 -9.47592,7.40409 -2.9763,2.99735 -7.141,5.17433 -10.13851,2.198 0.021,2.766 -2.22963,4.596 -4.17526,4.36462 -1.93525,-0.22082 -3.65994,-1.77733 -5.43727,-2.88168 -6.8677,-4.28053 -15.58643,-1.44083 -20.46638,6.65729 3.05,-12.97808 7.51976,-27.87034 16.89041,-30.92033 3.82837,-1.25148 8.00363,-0.22082 11.62146,-2.38741 6.405,-3.83864 7.69859,-18.34178 2.16658,-24.326 0.70457,5.65808 0.568,12.26286 -2.419,16.13321 -2.98683,3.87036 -9.25511,1.34609 -8.87638,-4.37515 -0.86248,3.94391 -5.15341,4.54346 -7.13063,1.5144 -1.98775,-3.0288 -1.81944,-7.98232 -0.41019,-11.60028 1.40925,-3.61796 3.80719,-6.21564 6.13143,-8.70819 4.99563,-5.35318 10.06495,-10.76951 15.84936,-14.13507 5.79494,-3.36542 12.48381,-4.50122 18.28914,-1.15673 3.06065,1.76681 5.753,4.71165 8.87651,6.26816 3.12368,1.567 7.08852,1.36728 9.16049,-2.29279 2.32424,-4.08064 1.23042,-10.13851 2.0929,-15.23928 1.546,-9.01311 10.55909,-13.23048 15.55472,-7.27789 -3.7335,-0.957 -7.59333,3.46018 -8.05615,8.81348 -0.47322,5.35317 2.22975,10.759 5.84758,12.37866 6.07892,2.69231 12.03151,-4.08078 16.62761,-10.34893 q 7.19361,-9.844 14.40839,-19.67748 a 23.78177,23.78177 0 0 1 2.57664,-3.13407 8.291,8.291 0 0 1 11.327,-0.23135 c 4.8589,3.96484 7.14116,12.09468 11.12719,17.68972 5.78441,8.12971 14.44,10.10693 22.496,11.6845 q 9.00784,1.75107 18.02648,3.52321 a 186.77361,186.77361 0 0 1 10.46447,23.10619 c -10.18068,4.32251 -19.57257,12.41024 -26.94507,23.29542 z"
       transform="translate(-187.39893,-154.29051)"
       fill="#ffffff"
       id="path10"
       style="stroke:url(#linearGradient56);stroke-width:3;stroke-dasharray:none;stroke-opacity:0.321168;paint-order:fill markers stroke" />
    <path
       d="m 695.95528,501.2765 a 188.54566,188.54566 0 0 1 -15.67052,26.21909 c -3.78613,-1.61968 -7.85625,1.27253 -11.40051,3.986 -3.702,2.83957 -8.15076,5.60558 -11.94742,3.01841 -3.88076,-2.65033 -5.13236,-10.06482 -3.90181,-15.944 1.23042,-5.8685 4.30133,-10.53816 7.27776,-14.97635 3.15513,-4.71165 6.53108,-9.60213 10.91676,-11.4321 4.39621,-1.83 10.04377,0.7572 11.327,7.00443 l 3.113,-0.10527 c -1.74588,-2.3978 -0.83077,-7.362 1.51453,-8.23485 2.70284,-1.02013 5.04826,2.69231 6.64676,5.97377 0.71517,1.48286 1.44081,2.97637 2.12445,4.49087 z"
       transform="translate(-187.39893,-154.29051)"
       fill="#ffffff"
       id="path11"
       style="stroke:url(#linearGradient57);stroke-width:3;stroke-dasharray:none;stroke-opacity:0.321168;paint-order:fill markers stroke" />
    <path
       d="m 576.72735,456.85307 c -6.69134,0.4208 -11.99157,-7.81664 -15.51364,-15.92031 -3.52206,-8.10375 -6.73574,-17.37094 -12.77336,-21.49573 -3.44981,-2.35695 -7.3829,-2.68032 -11.12485,-3.82245 -3.742,-1.142 -7.65866,-3.50524 -9.44741,-8.31792 l -4.2446,-1.71473 c -5.60569,3.152 -11.28535,6.36156 -16.11556,11.4909 a 36.01807,36.01807 0 0 0 -9.60269,20.99346 c -0.81084,8.4961 2.18328,17.96965 7.77788,21.16122 4.42058,2.52189 9.56739,0.93232 14.04519,3.24105 5.59453,2.88442 8.916,11.2636 10.17332,19.53684 1.25732,8.27324 0.93866,16.87112 1.83819,25.23825 0.89953,8.36713 3.37871,17.07349 8.50933,21.36133 6.42036,5.36571 15.8412,0.907 18.72178,-8.86044 1.413,-4.79111 1.36427,-10.19733 2.42106,-15.1707 1.861,-8.75838 6.88293,-15.25634 10.866,-22.44083 3.98315,-7.1844 7.11846,-16.94226 4.46936,-25.27994 z"
       fill="#ffffff"
       id="path12"
       transform="translate(-187.39893,-154.29051)"
       style="stroke:url(#linearGradient58);stroke-width:3;stroke-dasharray:none;stroke-opacity:0.321168;paint-order:fill markers stroke" />
    <path
       d="m 510.60693,370.79 a 17.86027,17.86027 0 0 1 1.74249,1.84977 6.0774,6.0774 0 0 1 -0.107,6.27583 5.83861,5.83861 0 0 0 4.18126,-2.12511 26.87915,26.87915 0 0 0 3.20585,-4.51587 c 0.68252,-1.11285 1.40836,-2.61751 0.94522,-3.93927 -0.3161,-0.90214 -1.06361,-1.287 -1.58767,-1.96542 -0.83059,-1.07533 -1.03646,-2.78336 -1.46641,-4.25929 -0.92846,-3.18785 -3.15264,-5.53192 -5.56707,-5.86707 l 0.33533,0.0642 c -1.00855,0.34549 -1.7128,1.94712 -1.48986,3.38824 0.20313,1.31242 1.04646,2.402 0.96255,3.74051 -0.12061,1.92473 -2.04418,2.828 -2.163,4.753 a 3.67445,3.67445 0 0 0 1.00831,2.60052 z"
       transform="translate(-187.39893,-154.29051)"
       fill="#ffffff"
       id="path13"
       style="stroke:url(#linearGradient59);stroke-width:3;stroke-dasharray:none;stroke-opacity:0.321168;paint-order:fill markers stroke" />
    <path
       d="m 499.14247,338.08151 c 0.01,-0.003 0.0199,-0.003 0.0299,-0.006 a 5.35694,5.35694 0 0 0 0.57089,-0.60813 z"
       transform="translate(-187.39893,-154.29051)"
       fill="#e6e6e6"
       id="path14"
       style="stroke:url(#linearGradient60);stroke-width:3;stroke-dasharray:none;stroke-opacity:0.321168;paint-order:fill markers stroke" />
    <path
       d="m 501.14925,347.11614 c 1.47948,-0.95135 2.30574,-3.58245 1.81653,-5.7846 -0.48608,-2.18856 -2.20646,-3.66 -3.79343,-3.25583 a 3.86646,3.86646 0 0 1 -3.59495,1.05839 c -0.98109,-0.25259 -2.0582,-0.90305 -2.90906,-0.16386 a 4.40412,4.40412 0 0 0 -0.9909,1.93479 q -0.47242,1.45027 -0.9449,2.90028 a 1.83,1.83 0 0 0 -0.11163,1.09908 0.93106,0.93106 0 0 0 0.714,0.56762 q 2.83452,0.83566 5.669,1.67123 c 1.37703,0.40594 2.8639,0.7971 4.14534,-0.0271 z"
       transform="translate(-187.39893,-154.29051)"
       fill="#ffffff"
       id="path15"
       style="stroke:url(#linearGradient61);stroke-width:3;stroke-dasharray:none;stroke-opacity:0.321168;paint-order:fill markers stroke" />
    <path
       d="m 643.80516,471.848 q -1.31031,-2.14511 -2.62049,-4.29038 a 14.334,14.334 0 0 0 -3.45325,-4.33578 3.05981,3.05981 0 0 0 -4.356,0.43639 l 0.1064,0.81686 c 1.991,2.498 4.09755,5.2729 4.60255,8.98025 0.19918,1.46151 0.12986,2.97414 0.3045,4.442 0.17464,1.46786 0.671,2.9901 1.61837,3.623 1.37543,0.91891 2.99049,-0.43593 3.96942,-2.08913 a 7.19317,7.19317 0 0 0 1.11451,-4.57885 8.02966,8.02966 0 0 0 -1.28601,-3.00436 z"
       transform="translate(-187.39893,-154.29051)"
       fill="#ffffff"
       id="path16"
       style="stroke:url(#linearGradient62);stroke-width:3;stroke-dasharray:none;stroke-opacity:0.321168;paint-order:fill markers stroke" />
    <path
       d="m 682.68046,417.23054 q 0.37892,-2.48492 0.758,-4.96988 a 14.334,14.334 0 0 0 0.15018,-5.54088 3.05981,3.05981 0 0 0 -3.61357,-2.47124 l -0.44463,0.69346 c -0.0854,3.1932 -0.26073,6.67273 -2.26178,9.83426 -0.78878,1.2464 -1.8159,2.359 -2.62754,3.59445 -0.81164,1.23545 -1.41218,2.71968 -1.09493,3.814 0.46053,1.58874 2.56861,1.59226 4.38215,0.95787 a 7.19314,7.19314 0 0 0 3.80128,-2.78536 8.02963,8.02963 0 0 0 0.95084,-3.12668 z"
       transform="translate(-187.39893,-154.29051)"
       fill="#e6e6e6"
       id="path17"
       style="stroke:url(#linearGradient63);stroke-width:3;stroke-dasharray:none;stroke-opacity:0.321168;paint-order:fill markers stroke" />
    <path
       d="m 657.50794,473.70914 c 0.42709,-1.2275 -0.18949,-2.63572 -0.31972,-3.99283 a 8.76489,8.76489 0 0 1 1.33382,-4.96911 16.1539,16.1539 0 0 0 2.07833,-4.55638 3.81152,3.81152 0 0 0 -0.0997,-2.23133 c -0.28914,-0.64955 -0.9895,-0.94582 -1.39116,-0.43149 l 0.85964,0.55366 a 7.82867,7.82867 0 0 0 -3.48867,0.16894 4.3178,4.3178 0 0 0 -2.64407,2.98058 18.44055,18.44055 0 0 1 -0.69335,3.09241 c -0.51278,1.054 -1.50541,1.4046 -2.12918,2.32976 a 5.57021,5.57021 0 0 0 0.0877,5.29184 6.1768,6.1768 0 0 0 3.4939,2.74757 c 1.04977,0.37666 2.43215,0.39651 2.91243,-0.98362 z"
       transform="translate(-187.39893,-154.29051)"
       fill="#ffffff"
       id="path18"
       style="stroke:url(#linearGradient64);stroke-width:3;stroke-dasharray:none;stroke-opacity:0.321168;paint-order:fill markers stroke" />
    <path
       d="m 681.91,481.07154 a 12.00485,12.00485 0 0 0 1.512,2.77512 c 1.16822,1.17675 2.75595,0.4536 4.17324,0.16757 a 7.21546,7.21546 0 0 1 6.86407,2.75319 17.47133,17.47133 0 0 0 -10.0484,-12.53642 c -3.341,-1.362 -6.85973,-1.49359 -10.33414,-1.616 l -0.60013,0.1538 c 1.52923,4.45156 6.33136,4.35196 8.43336,8.30274 z"
       transform="translate(-187.39893,-154.29051)"
       fill="#ffffff"
       id="path19"
       style="stroke:url(#linearGradient65);stroke-width:3;stroke-dasharray:none;stroke-opacity:0.321168;paint-order:fill markers stroke" />
    <path
       d="m 578.55783,490.17659 0.009,0.0194 q 0.0874,-0.168 0.17459,-0.33624 z"
       transform="translate(-187.39893,-154.29051)"
       fill="#e6e6e6"
       id="path20"
       style="stroke:url(#linearGradient66);stroke-width:3;stroke-dasharray:none;stroke-opacity:0.321168;paint-order:fill markers stroke" />
    <path
       d="m 574.8559,497.342 a 32.88905,32.88905 0 0 0 -2.07687,4.56227 39.71126,39.71126 0 0 0 -1.50522,7.80631 c -0.188,1.50447 -0.246,3.42594 0.69654,4.15905 a 1.337,1.337 0 0 0 1.74906,-0.23754 6.91827,6.91827 0 0 0 1.26793,-1.88467 43.41661,43.41661 0 0 0 4.28028,-10.15882 c 0.90215,-3.74378 0.89368,-8.15134 -0.701,-11.39266 q -1.85526,3.57312 -3.71072,7.14606 z"
       transform="translate(-187.39893,-154.29051)"
       fill="#ffffff"
       id="path21"
       style="stroke:url(#linearGradient67);stroke-width:3;stroke-dasharray:none;stroke-opacity:0.321168;paint-order:fill markers stroke" />
    <path
       d="m 539.14331,306.43983 a 4.21456,4.21456 0 0 0 4.54215,0.88647 14.99873,14.99873 0 0 0 4.27371,-2.823 10.0548,10.0548 0 0 0 2.59074,-2.82624 5.73178,5.73178 0 0 0 0.53,-4.36641 c -0.58529,-1.71175 -2.07037,-2.28553 -3.38049,-2.67406 q -3.14617,-0.933 -6.29241,-1.86591 l 1.51726,-1.36753 c -1.561,-0.83779 -3.288,0.71707 -4.26378,2.64207 a 14.22382,14.22382 0 0 0 -1.29432,3.98431 c -0.52223,3.02147 -0.0116,6.61953 1.77714,8.4103 z"
       transform="translate(-187.39893,-154.29051)"
       fill="#e6e6e6"
       id="path22"
       style="stroke:url(#linearGradient68);stroke-width:3;stroke-dasharray:none;stroke-opacity:0.321168;paint-order:fill markers stroke" />
    <path
       d="m 576.17373,294.00836 a 3.46486,3.46486 0 0 0 4.72246,0.38419 5.27918,5.27918 0 0 0 2.08866,-3.76209 c 0.14845,-1.64984 -0.66729,-3.48358 -1.8324,-3.626 l 0.26665,-1.54471 c -2.24437,-0.4053 -5.00619,-0.48651 -6.20894,2.239 a 6.399,6.399 0 0 0 0.96357,6.30961 z"
       transform="translate(-187.39893,-154.29051)"
       fill="#e6e6e6"
       id="path23"
       style="stroke:url(#linearGradient69);stroke-width:3;stroke-dasharray:none;stroke-opacity:0.321168;paint-order:fill markers stroke" />
    <path
       d="m 571.22709,211.86454 a 49.9257,49.9257 0 0 0 -55.20724,44.0149 c -3.09067,27.39943 11.34417,86.89808 37.66188,111.52805 12.39171,-47.189 55.81463,-75.17882 61.56026,-100.33572 6.13939,-26.88101 -16.61547,-52.11655 -44.0149,-55.20723 z"
       transform="translate(-187.39893,-154.29051)"
       fill="#6c63ff"
       id="path24"
       style="stroke:url(#linearGradient70);stroke-width:3;stroke-dasharray:none;stroke-opacity:0.321168;paint-order:fill markers stroke" />
    <circle
       id="a2705e7e-530b-43fb-b0c6-4087ca2c8018"
       data-name="b262ea8c-1946-46c9-a449-3a1996c39394"
       cx="374.72809"
       cy="102.20342"
       r="16.282419"
       fill="#ffffff"
       style="stroke:url(#linearGradient71);stroke-width:3;stroke-dasharray:none;stroke-opacity:0.321168;paint-order:fill markers stroke" />
    <circle
       id="bb575e01-1284-49d3-8651-037e5b7ffa75"
       data-name="bcc29a3a-8123-4529-80aa-6f70df2823cf"
       cx="357.60782"
       cy="225.92931"
       r="10.66463"
       fill="#6c63ff"
       style="stroke:url(#linearGradient72);stroke-width:3;stroke-dasharray:none;stroke-opacity:0.321168;paint-order:fill markers stroke" />
    <path
       d="m 575.59911,244.82842 a 16.282111,16.282111 0 0 1 -16.77249,27.91258 16.28,16.28 0 0 0 11.9092,-29.8527 16.28211,16.28211 0 0 1 4.86329,1.94012 z"
       transform="translate(-187.39893,-154.29051)"
       fill="#231f20"
       opacity="0.2"
       style="isolation:isolate;stroke:url(#linearGradient73);stroke-width:3;stroke-dasharray:none;stroke-opacity:0.321168;paint-order:fill markers stroke"
       id="path25" />
    <path
       d="m 615.30574,267.12439 c -5.74562,25.15687 -49.16855,53.14674 -61.56025,100.33571 a 69.06074,69.06074 0 0 1 -6.87746,-7.53474 c 13.92474,-44.35631 54.64494,-71.30876 60.19629,-95.61482 4.96849,-21.75442 -8.98817,-42.429 -29.01462,-51.16258 24.24203,6.09397 42.88221,29.34255 37.25604,53.97643 z"
       transform="translate(-187.39893,-154.29051)"
       fill="#231f20"
       opacity="0.2"
       style="isolation:isolate;stroke:url(#linearGradient74);stroke-width:3;stroke-dasharray:none;stroke-opacity:0.321168;paint-order:fill markers stroke"
       id="path26" />
    <path
       d="m 418.64434,275.39608 a 37.4925,37.4925 0 0 0 -41.45875,33.05369 c -2.321,20.576 8.51909,65.25748 28.28279,83.75375 9.30575,-35.43731 41.91488,-56.45672 46.22965,-75.34869 4.61047,-20.18673 -12.47765,-39.13775 -33.05369,-41.45875 z"
       transform="translate(-187.39893,-154.29051)"
       fill="#6c63ff"
       id="path27"
       style="stroke:url(#linearGradient75);stroke-width:3;stroke-dasharray:none;stroke-opacity:0.321168;paint-order:fill markers stroke" />
    <circle
       id="b2d5ab8a-e71c-4a1a-aadf-98f8ab95825b"
       data-name="b262ea8c-1946-46c9-a449-3a1996c39394"
       cx="224.41158"
       cy="154.62073"
       r="12.22754"
       fill="#ffffff"
       style="stroke:url(#linearGradient76);stroke-width:3;stroke-dasharray:none;stroke-opacity:0.321168;paint-order:fill markers stroke" />
    <circle
       id="bac33ac8-32b5-423c-9bc5-6c03ceb8d8dc"
       data-name="bcc29a3a-8123-4529-80aa-6f70df2823cf"
       cx="211.55484"
       cy="247.53462"
       r="8.00877"
       fill="#6c63ff"
       style="stroke:url(#linearGradient77);stroke-width:3;stroke-dasharray:none;stroke-opacity:0.321168;paint-order:fill markers stroke" />
    <path
       d="m 421.92757,300.15083 a 12.227304,12.227304 0 1 1 -12.59557,20.96138 12.22574,12.22574 0 0 0 8.9434,-22.41835 12.22721,12.22721 0 0 1 3.65217,1.45697 z"
       transform="translate(-187.39893,-154.29051)"
       fill="#231f20"
       opacity="0.2"
       style="isolation:isolate;stroke:url(#linearGradient78);stroke-width:3;stroke-dasharray:none;stroke-opacity:0.321168;paint-order:fill markers stroke"
       id="path28" />
    <path
       d="m 451.7459,316.89434 c -4.31476,18.892 -36.9239,39.91138 -46.22964,75.34869 a 51.86155,51.86155 0 0 1 -5.16474,-5.65834 c 10.457,-33.31006 41.03648,-53.55043 45.20536,-71.80345 3.73116,-16.33682 -6.74982,-31.8627 -21.789,-38.42135 18.20494,4.57636 32.20312,22.03525 27.97802,40.53445 z"
       transform="translate(-187.39893,-154.29051)"
       fill="#231f20"
       opacity="0.2"
       style="isolation:isolate;stroke:url(#linearGradient79);stroke-width:3;stroke-dasharray:none;stroke-opacity:0.321168;paint-order:fill markers stroke"
       id="path29" />
    <path
       d="M 723.12108,268.05031 A 28.8805,28.8805 0 0 0 685.62273,284.238 c -5.88478,14.825 -6.86,50.22813 4.09122,67.97179 14.08087,-24.45936 42.56848,-33.49094 49.59479,-46.6611 7.50786,-14.0728 -1.36268,-31.61359 -16.18766,-37.49838 z"
       transform="translate(-187.39893,-154.29051)"
       fill="#6c63ff"
       id="path34"
       style="stroke:url(#linearGradient80);stroke-width:3;stroke-dasharray:none;stroke-opacity:0.321168;paint-order:fill markers stroke" />
    <circle
       id="f50692ea-d13f-4759-b5e2-05248e17533e"
       data-name="b262ea8c-1946-46c9-a449-3a1996c39394"
       cx="523.86725"
       cy="137.29013"
       r="9.4188805"
       fill="#ffffff"
       style="stroke:url(#linearGradient81);stroke-width:3;stroke-dasharray:none;stroke-opacity:0.321168;paint-order:fill markers stroke" />
    <circle
       id="aec6a1c4-a00c-42b6-a49d-0158b63ca54a"
       data-name="bcc29a3a-8123-4529-80aa-6f70df2823cf"
       cx="495.52762"
       cy="203.75403"
       r="6.1691699"
       fill="#6c63ff"
       style="stroke:url(#linearGradient82);stroke-width:3;stroke-dasharray:none;stroke-opacity:0.321168;paint-order:fill markers stroke" />
    <path
       d="m 720.55717,287.11426 a 9.41871,9.41871 0 0 1 -13.59978,13.03434 9.4175,9.4175 0 0 0 11.17966,-14.8556 9.41862,9.41862 0 0 1 2.42012,1.82126 z"
       transform="translate(-187.39893,-154.29051)"
       fill="#231f20"
       opacity="0.2"
       style="isolation:isolate;stroke:url(#linearGradient83);stroke-width:3;stroke-dasharray:none;stroke-opacity:0.321168;paint-order:fill markers stroke"
       id="path35" />
    <path
       d="m 739.33634,305.58771 c -7.0263,13.17015 -35.51393,22.20174 -49.59479,46.6611 a 39.949,39.949 0 0 1 -2.69508,-5.24993 c 14.50656,-22.64545 41.328,-31.50828 48.11674,-44.233 6.076,-11.3889 1.42413,-25.0481 -8.42863,-32.96342 12.6066,7.08188 19.482,22.88891 12.60176,35.78525 z"
       transform="translate(-187.39893,-154.29051)"
       fill="#231f20"
       opacity="0.2"
       style="isolation:isolate;stroke:url(#linearGradient84);stroke-width:3;stroke-dasharray:none;stroke-opacity:0.321168;paint-order:fill markers stroke"
       id="path36" />
    <path
       d="m 525.25653,431.82116 c -7.80534,0 -16.3603,-0.50456 -25.66487,-1.51368 C 451.46535,425.07982 389.12715,406.90468 324.06014,379.13153 258.99342,351.35837 198.97137,317.30331 155.05145,283.24222 133.65674,266.6494 117.23642,250.94318 106.24715,236.55878 94.612342,221.33075 89.523121,208.05703 91.120252,197.10795 c 3.111952,-21.33074 31.892908,-33.35439 53.234458,-26.156 l 25.75725,8.00669 c -40.80065,-8.36549 -76.250206,0.089 -78.457747,15.22216 -2.812031,19.27429 21.347827,53.04337 64.146417,86.23607 43.8234,33.98633 103.73505,67.97576 168.69903,95.7055 64.96368,27.72874 127.18706,45.87257 175.20741,51.08913 46.89606,5.09538 75.40691,-3.03744 78.21865,-22.31224 2.33446,-16.0031 -21.6391,-43.25603 -43.33608,-66.38235 l -12.65416,-1.52856 c 22.00189,19.47678 61.0287,46.18536 57.75001,68.66218 -1.59739,10.94912 -9.73567,18.57604 -24.189,22.6687 -8.23895,2.3326 -18.35866,3.50193 -30.23964,3.50193 z"
       fill="#6c63ff"
       id="path44"
       style="stroke:url(#linearGradient85);stroke-width:3;stroke-dasharray:none;stroke-opacity:0.321168;paint-order:fill markers stroke"
       sodipodi:nodetypes="scccccccccccsccccss" />
  </g>
</svg>
